<?xml version="1.0" encoding="UTF-8"?>
<svg version="1.1" xmlns="http://www.w3.org/2000/svg" width="1667" height="1667">
<path d="M0 0 C550.11 0 1100.22 0 1667 0 C1667 550.11 1667 1100.22 1667 1667 C1116.89 1667 566.78 1667 0 1667 C0 1116.89 0 566.78 0 0 Z " fill="#FEFEFE" transform="translate(0,0)"/>
<path d="M0 0 C23.66897057 -2.33654697 47.29505769 -4.03585203 71.0625 -4.9375 C72.3679975 -4.98816998 72.3679975 -4.98816998 73.69986868 -5.03986359 C115.58601834 -6.61549271 152.92106589 -7.29123625 185.18418884 22.49610901 C190.60495258 27.74630172 195.63981143 33.28369217 200.5625 39 C201.36281269 39.92839314 202.16312538 40.85678627 202.98768997 41.81331253 C211.49423557 51.79588357 219.50872716 62.08836243 226.80517673 72.99112034 C231.4600218 79.91460097 236.87072567 86.02432613 242.8125 91.875 C244.08480469 93.13570312 244.08480469 93.13570312 245.3828125 94.421875 C246.67832031 95.69804687 246.67832031 95.69804687 248 97 C253.35243978 102.27255262 258.58867263 107.5526264 263.48046875 113.2578125 C265.54283841 115.62238029 267.75273176 117.8118704 270 120 C273.62881522 123.58489612 277.0406286 127.262936 280.35546875 131.13671875 C282.00398752 133.00451793 283.72303581 134.75455624 285.5 136.5 C288.4454073 139.39999353 291.15463709 142.43626431 293.8515625 145.56640625 C296.67620167 148.76595208 299.58752008 151.88051465 302.5 155 C306.52429202 159.31454089 310.51103145 163.64672863 314.3671875 168.11328125 C317.53811467 171.77729519 320.7761409 175.38257888 324 179 C331.86344918 175.71000517 337.65992059 167.48307165 343.08984375 161.12890625 C346.28716248 157.56543241 349.73220364 154.24973056 353.15625 150.90625 C355.23554513 148.83277108 357.15805743 146.67213896 359.0625 144.4375 C364.728826 137.89372767 371.0207423 131.92442564 377.17529297 125.84521484 C378.8169273 124.22187975 380.45538019 122.5953788 382.09375 120.96875 C382.5825061 120.48829224 383.07126221 120.00783447 383.5748291 119.51281738 C386.22478836 116.88119384 388.73029621 114.18043564 391.16040039 111.34399414 C395.95330977 105.81399086 401.16273365 100.69307399 406.33984375 95.52734375 C407.43183191 94.43468011 408.52367175 93.34186822 409.6153717 92.24891663 C411.89227122 89.97055162 414.17094653 87.69398217 416.45092773 85.41870117 C419.35342441 82.52190105 422.25140706 79.6206332 425.14806271 76.71799374 C427.3983543 74.46406535 429.65105092 72.21255274 431.90445137 69.96173286 C432.97315128 68.89369362 434.04112674 67.82492892 435.10832024 66.75538445 C440.30806661 61.54669545 445.53928338 56.43829755 451.13038635 51.64723206 C454.55383085 48.63098989 457.7322472 45.36952258 460.9375 42.125 C462.02405884 41.03276123 462.02405884 41.03276123 463.13256836 39.91845703 C465.42418303 37.61474354 467.71250652 35.30780526 470 33 C473.01785081 29.95535221 476.03913416 26.91417033 479.0625 23.875 C480.07848267 22.84656982 480.07848267 22.84656982 481.11499023 21.79736328 C484.29608593 18.60020738 487.51343496 15.5115308 490.93359375 12.5703125 C495.4752265 8.58275022 499.72641363 4.27358637 504 0 C532.71 0 561.42 0 591 0 C591 168.96 591 337.92 591 512 C564.27 512 537.54 512 510 512 C509.67 356.9 509.34 201.8 509 42 C506.36 44.64 503.72 47.28 501 50 C499.09128861 51.65421654 497.18228149 53.30812061 495.265625 54.953125 C491.8992308 57.99448804 488.72971818 61.22559842 485.56347656 64.47363281 C482.85837031 67.22648703 480.08259224 69.82600225 477.15625 72.34375 C472.71652728 76.18419456 468.61139614 80.31371504 464.5 84.5 C463.07549444 85.95045284 461.64842536 87.39839265 460.21875 88.84375 C459.2896582 89.79024414 459.2896582 89.79024414 458.34179688 90.75585938 C456.37404969 92.64154871 454.36938001 94.41998818 452.30506897 96.19691467 C448.30864134 99.6860977 444.52122693 103.33705083 440.77709961 107.09350586 C440.10442551 107.76442764 439.4317514 108.43534943 438.73869324 109.12660217 C436.54074095 111.32019382 434.34641931 113.51737504 432.15234375 115.71484375 C430.61127557 117.25523723 429.07005905 118.79548233 427.52870178 120.33558655 C424.30876703 123.55405216 421.09063454 126.77430611 417.8737793 129.99584961 C413.76629846 134.10902723 409.65434395 138.21769853 405.5410223 142.32503414 C402.3606366 145.50179304 399.18265287 148.68094627 396.005373 151.86081123 C394.49076124 153.3760864 392.97541648 154.89062926 391.4593029 156.40440178 C389.33493045 158.52621278 387.21382674 160.65124085 385.09350586 162.77709961 C384.16828125 163.69928787 384.16828125 163.69928787 383.22436523 164.6401062 C379.5171217 168.36515697 376.00368012 172.21036083 372.5809412 176.19875431 C370.18225493 178.93169802 367.60245841 181.46310991 365 184 C360.97599418 187.96889103 357.11765092 191.99858626 353.47265625 196.32421875 C352.06537104 197.92561226 350.58134206 199.32377597 349 200.75 C348.34 201.4925 347.68 202.235 347 203 C347.28212561 206.79660465 349.41125871 208.99590887 351.8125 211.8125 C352.63105469 212.78960937 353.44960938 213.76671875 354.29296875 214.7734375 C354.95498291 215.55992676 354.95498291 215.55992676 355.63037109 216.36230469 C391.12114651 258.799403 428.78042319 308.42519122 439 364 C439.17660156 364.89041992 439.35320312 365.78083984 439.53515625 366.69824219 C446.0279796 401.58557337 438.42566329 440.43596586 418.67089844 469.98828125 C415.68692592 474.20557087 412.43744145 478.14665302 409 482 C408.30849854 482.78213867 408.30849854 482.78213867 407.60302734 483.58007812 C384.46201976 509.30482951 349.24758384 522.40959686 315.3125 524.83984375 C281.75665178 526.46223735 250.71989303 518.62747187 225 496 C204.91919302 477.76555764 189.64283567 453.38011268 187.77685547 425.68847656 C186.75712691 394.21373807 192.18843981 365.32171505 206 337 C206.40927734 336.14631836 206.81855469 335.29263672 207.24023438 334.41308594 C218.75122041 310.60822916 233.96964096 288.9596564 250 268 C250.47453613 267.37915527 250.94907227 266.75831055 251.43798828 266.11865234 C255.77674423 260.47043127 260.20193189 254.91625373 264.828125 249.5 C265.80362305 248.34781982 265.80362305 248.34781982 266.79882812 247.17236328 C268.07793398 245.66630896 269.36798746 244.16946955 270.66992188 242.68310547 C271.24806641 242.00135254 271.82621094 241.31959961 272.421875 240.6171875 C272.94362305 240.01503418 273.46537109 239.41288086 274.00292969 238.79248047 C275.18352559 237.05113987 275.18352559 237.05113987 274.87060547 235.01318359 C273.81243816 232.56628297 272.50394725 231.08664928 270.6484375 229.171875 C269.96136719 228.45386719 269.27429688 227.73585938 268.56640625 226.99609375 C267.84324219 226.25488281 267.12007812 225.51367188 266.375 224.75 C264.9647481 223.28780512 263.55588507 221.82426941 262.1484375 220.359375 C261.45000732 219.63282715 260.75157715 218.9062793 260.03198242 218.15771484 C257.52349976 215.49401549 255.12756729 212.7446868 252.73339844 209.97851562 C249.71624482 206.53471099 246.57824911 203.20583785 243.4375 199.875 C242.74857666 199.14289307 242.05965332 198.41078613 241.34985352 197.65649414 C236.26098249 192.27379896 231.07747534 186.99646778 225.78100586 181.81787109 C223.00768335 179.08905399 220.37316047 176.30883344 217.84375 173.3515625 C213.3625473 168.16902959 208.50870704 163.35892802 203.6574707 158.52709961 C202.06541034 156.94040054 200.4787701 155.34842258 198.89257812 153.75585938 C194.0702519 148.93070762 189.20102349 144.23046987 184.01342773 139.79516602 C178.68667548 135.04584999 173.78543289 129.81822246 168.77734375 124.73828125 C164.2161217 120.1372232 159.61445896 115.68523432 154.69335938 111.47070312 C152.51924105 109.58245503 150.50451955 107.56619708 148.5 105.5 C145.09629724 102.04951094 141.57561011 98.83362606 137.8984375 95.6796875 C136.02029247 94.01795424 134.25694484 92.28874475 132.5 90.5 C129.58638075 87.5406513 126.53781074 84.81279192 123.390625 82.10546875 C119.65348965 78.81410282 116.02376179 75.4063264 112.39208984 71.99926758 C109.43268446 69.17497915 109.43268446 69.17497915 106 67 C106.08194774 110.27065656 106.17419144 153.54128048 106.28005161 196.81188547 C106.29256899 201.93196318 106.30500199 207.0520411 106.31738281 212.17211914 C106.31984881 213.19134225 106.3223148 214.21056535 106.32485552 215.26067401 C106.36447122 231.71725222 106.3972678 248.17383722 106.42749982 264.63043504 C106.45872381 281.54347155 106.49737908 298.45647959 106.54279006 315.36948401 C106.57053249 325.78759545 106.59262648 336.20568631 106.60726251 346.62382454 C106.61788622 353.78880784 106.63579283 360.95375103 106.65916704 368.11870395 C106.67240225 372.23917934 106.68267646 376.35959906 106.68421364 380.48009682 C106.69331838 398.73554784 107.14344992 416.81950679 109 435 C109.07046626 435.71289967 109.14093252 436.42579935 109.21353412 437.16030204 C110.51502199 450.09584656 115.00653965 462.30777147 125 471 C139.23877548 481.96830674 155.0121124 484.72798266 172.515625 485.75390625 C175 486 175 486 176 487 C176 495.25 176 503.5 176 512 C116.6 512 57.2 512 -4 512 C-4 487 -4 487 -3 486 C-1.21646233 485.70189415 0.57628773 485.45861074 2.37109375 485.23828125 C33.61120515 481.40545315 33.61120515 481.40545315 58.74609375 463.84765625 C77.31367709 438.57178473 75.31411967 403.54594698 75.27610838 373.65431476 C75.27359918 369.94197198 75.28270589 366.22965244 75.29014587 362.51731873 C75.30277746 355.27967186 75.30470144 348.04206229 75.30234561 340.80440626 C75.30055039 334.91552642 75.3023376 329.02665775 75.30657005 323.13777924 C75.30716524 322.29434534 75.30776043 321.45091144 75.30837366 320.58191894 C75.30958559 318.86766412 75.31079973 317.1534093 75.31201603 315.43915448 C75.32284557 299.4315568 75.32075005 283.42398029 75.31463119 267.41638145 C75.30945756 252.81306976 75.32073744 238.20982468 75.33972941 223.60652617 C75.35915488 208.5528048 75.36735611 193.49911489 75.36360615 178.44538093 C75.36170234 170.01723771 75.36410182 161.58915126 75.37832069 153.16101837 C75.39029527 145.9918477 75.3915713 138.82276881 75.37953053 131.65359673 C75.37368616 128.00554337 75.37241756 124.35765741 75.38453293 120.70961571 C75.468746 93.45548051 74.54609713 66.83795517 55.6875 45.3671875 C40.36455551 30.49788282 20.30239738 27.6686902 0 26 C0 17.42 0 8.84 0 0 Z " fill="#082BFB" transform="translate(520,266)"/>
<path d="M0 0 C3.79238347 3.66208458 7.16250464 7.49693367 10.4375 11.625 C10.9540918 12.2754126 11.47068359 12.9258252 12.00292969 13.59594727 C37.46544973 45.88829747 65.54082736 83.25613251 75 124 C75.30164063 125.20011719 75.60328125 126.40023437 75.9140625 127.63671875 C81.94385779 152.34760878 79.84576011 177.74477825 67.25 200.1875 C63.77314005 205.67915571 59.54220188 210.37165291 55 215 C54.39671875 215.62777344 53.7934375 216.25554687 53.171875 216.90234375 C37.67718765 231.75703315 15.9550018 235.57181791 -4.7109375 235.28125 C-20.78914391 234.69680048 -36.42008994 228.97508117 -49 219 C-49.83402344 218.34257813 -50.66804687 217.68515625 -51.52734375 217.0078125 C-67.27210351 203.76183588 -75.15111266 185.03304548 -78 165 C-78.27923128 161.30681441 -78.3348385 157.64026646 -78.3125 153.9375 C-78.30404053 152.44150269 -78.30404053 152.44150269 -78.29541016 150.9152832 C-77.61155564 108.54000113 -53.36420498 70.11815986 -29 37 C-28.47422363 36.28279785 -27.94844727 35.5655957 -27.40673828 34.82666016 C-18.66503747 22.94199896 -9.75624738 11.07465919 0 0 Z " fill="#FEFEFE" transform="translate(817,526)"/>
<path d="M0 0 C12.54 0 25.08 0 38 0 C43.61860941 12.3609407 43.61860941 12.3609407 45.359375 17.171875 C45.74834961 18.23688232 46.13732422 19.30188965 46.53808594 20.39916992 C47.1379834 22.05783081 47.1379834 22.05783081 47.75 23.75 C50.9879135 32.60188054 54.29179797 41.41922728 57.75 50.1875 C60.38010463 56.85808852 62.9864343 63.53450249 65.5 70.25 C65.74331055 70.8999292 65.98662109 71.5498584 66.23730469 72.21948242 C67.19905116 74.8018068 68.12849896 77.38549687 69 80 C69.36649658 79.05608398 69.73299316 78.11216797 70.1105957 77.13964844 C76.45007794 60.81466791 82.79295182 44.49100562 89.1875 28.1875 C89.63198486 27.0521582 90.07646973 25.91681641 90.53442383 24.74707031 C93.89885039 16.18165145 93.89885039 16.18165145 95.67578125 12.30078125 C97.44354446 8.15252935 97.44354446 8.15252935 99 0 C110.88 0 122.76 0 135 0 C135 1.65 135 3.3 135 5 C130.71 5.99 126.42 6.98 122 8 C120.96187709 12.15249166 120.83051043 15.93706013 120.80712891 20.17749023 C120.79895142 20.99909637 120.79077393 21.82070251 120.78234863 22.66720581 C120.75757269 25.38099446 120.7410021 28.09473123 120.7265625 30.80859375 C120.71857698 32.20038188 120.71857698 32.20038188 120.71043015 33.62028694 C120.68373744 38.52785541 120.66434681 43.43539873 120.64990234 48.34301758 C120.63654239 52.40444354 120.60864661 56.46536954 120.56787109 60.52661133 C120.51861271 65.43311266 120.49379044 70.33915924 120.48667526 75.24589729 C120.47995641 77.1146345 120.46471786 78.9833613 120.44078445 80.85195732 C120.4092001 83.46621708 120.40908508 86.07871516 120.41650391 88.69311523 C120.40009857 89.46366745 120.38369324 90.23421967 120.36679077 91.02812195 C120.41323908 95.02773761 120.83862792 96.79829997 123.36923218 99.96131897 C126.15700189 102.12166668 127.85853466 102.80591842 131.3125 103.3125 C132.19550781 103.45300781 133.07851563 103.59351563 133.98828125 103.73828125 C134.65214844 103.82464844 135.31601562 103.91101562 136 104 C136 105.65 136 107.3 136 109 C119.83 109 103.66 109 87 109 C87 107.35 87 105.7 87 104 C87.90363281 103.82984375 88.80726563 103.6596875 89.73828125 103.484375 C90.91777344 103.24203125 92.09726562 102.9996875 93.3125 102.75 C94.48425781 102.51796875 95.65601563 102.2859375 96.86328125 102.046875 C100.48623894 100.83771851 101.1972376 100.29596726 103 97 C103.30342329 94.26499855 103.43759045 91.75390052 103.43237305 89.01855469 C103.4425647 88.2181778 103.45275635 87.4178009 103.46325684 86.59317017 C103.49340519 83.95266741 103.50265548 81.31252732 103.51171875 78.671875 C103.52856409 76.83911939 103.54671414 75.00637534 103.56611633 73.17364502 C103.61363825 68.35355238 103.64343343 63.53350662 103.66955566 58.71325684 C103.69935012 53.7931187 103.74588428 48.87314213 103.79101562 43.953125 C103.87707368 34.30216781 103.94440786 24.65117739 104 15 C103.34 15 102.68 15 102 15 C101.87810303 15.87970459 101.75620605 16.75940918 101.63061523 17.66577148 C101.03122373 20.83491196 100.17225592 23.39089635 98.91015625 26.34765625 C98.46422119 27.40605713 98.01828613 28.46445801 97.55883789 29.55493164 C96.81815063 31.29117798 96.81815063 31.29117798 96.0625 33.0625 C94.97421073 35.64376578 93.89260466 38.2278 92.8125 40.8125 C92.51847794 41.51532608 92.22445587 42.21815216 91.92152405 42.942276 C87.27922427 54.0797557 82.85114988 65.30506695 78.38674927 76.51467896 C70.09795009 97.32621269 70.09795009 97.32621269 66 107 C64.35 107 62.7 107 61 107 C60.62868202 106.00759811 60.62868202 106.00759811 60.24986267 104.99514771 C57.88389403 98.67238042 55.51679206 92.35003841 53.14850521 86.02813911 C51.93182176 82.78021275 50.71553416 79.53213944 49.50024414 76.28369141 C42.97824645 58.81802061 42.97824645 58.81802061 36.25390625 41.4296875 C32.55890604 32.0512381 29.27358228 22.53219401 26 13 C25.90700044 22.73637961 25.83608376 32.4726522 25.79275131 42.20938683 C25.77194566 46.73138583 25.74375771 51.25307919 25.69824219 55.77490234 C25.65453211 60.14509681 25.63081018 64.51499873 25.62049103 68.88539505 C25.61314453 70.54624659 25.59879927 72.20708353 25.57707977 73.8678093 C25.21586457 87.00689646 25.21586457 87.00689646 30 99 C33.23519854 101.16033874 33.23519854 101.16033874 37 102 C38.3125112 102.39579618 39.62501166 102.79162801 40.9375 103.1875 C42.4534375 103.5896875 42.4534375 103.5896875 44 104 C44 105.65 44 107.3 44 109 C29.48 109 14.96 109 0 109 C0 107.35 0 105.7 0 104 C0.66386719 103.84144531 1.32773437 103.68289063 2.01171875 103.51953125 C7.61977611 102.0376942 11.31632722 100.75312617 15 96 C16.16844842 92.49465474 16.1553068 89.33344242 16.16113281 85.6862793 C16.16609772 84.94445404 16.17106262 84.20262878 16.17617798 83.43832397 C16.1907853 80.98361279 16.1975995 78.52896626 16.203125 76.07421875 C16.208878 74.36652118 16.21463572 72.65882363 16.22039795 70.9511261 C16.23090412 67.36918843 16.23674918 63.78727318 16.24023438 60.20532227 C16.24571574 55.62208849 16.26973764 51.0391523 16.29820633 46.45601177 C16.31685814 42.9274866 16.32203968 39.39903272 16.32357025 35.87046242 C16.326592 34.18121528 16.33460438 32.49196926 16.34775543 30.80277061 C16.36486804 28.43558699 16.36292316 26.06912519 16.35644531 23.7019043 C16.3656601 23.00818222 16.37487488 22.31446014 16.3843689 21.59971619 C16.34520551 17.01611291 15.38630109 13.90289441 13 10 C11.20024449 8.51038974 11.20024449 8.51038974 9.125 7.6875 C8.42632813 7.37683594 7.72765625 7.06617188 7.0078125 6.74609375 C4.69421192 5.88637058 2.45040474 5.30630059 0 5 C0 3.35 0 1.7 0 0 Z " fill="#8104FE" transform="translate(592,1090)"/>
<path d="M0 0 C7.81043705 -0.05089285 15.620831 -0.08581449 23.43139648 -0.10986328 C26.08609839 -0.11875946 28.74058227 -0.13352056 31.39526367 -0.15087891 C35.22056799 -0.1752576 39.04572566 -0.18651312 42.87109375 -0.1953125 C44.04957382 -0.20563507 45.22805389 -0.21595764 46.44224548 -0.22659302 C62.53095902 -0.22876208 78.32219963 4.52383495 90.25 15.75 C96.63092746 22.51765034 100.47479338 30.11635946 103 39 C103.33 39.99 103.66 40.98 104 42 C104.26128707 46.01629895 104.23151002 50.03861857 104.25 54.0625 C104.270625 55.15755859 104.29125 56.25261719 104.3125 57.38085938 C104.37967251 71.47868944 99.60989736 82.76292068 90.015625 93.12890625 C76.46747583 105.70557961 59.10045757 109.1764527 41.28515625 109.09765625 C40.07427841 109.0962413 38.86340057 109.09482635 37.61582947 109.09336853 C33.76469406 109.08779026 29.91361771 109.0752417 26.0625 109.0625 C23.4446623 109.05748219 20.82682369 109.05291978 18.20898438 109.04882812 C11.80596958 109.03782794 5.40298901 109.02111144 -1 109 C-1 107.35 -1 105.7 -1 104 C-0.24074219 103.90203125 0.51851562 103.8040625 1.30078125 103.703125 C2.29464844 103.55359375 3.28851563 103.4040625 4.3125 103.25 C5.79169922 103.04117187 5.79169922 103.04117187 7.30078125 102.828125 C10.6799396 101.79139335 11.30834225 101.08589769 13 98 C13.29058646 95.12908815 13.41012117 92.47701645 13.38818359 89.60717773 C13.39606903 88.34068893 13.39606903 88.34068893 13.40411377 87.0486145 C13.41730878 84.26008563 13.40857829 81.47212834 13.3984375 78.68359375 C13.40045819 76.74593496 13.40336959 74.80827691 13.40713501 72.87062073 C13.41155753 68.81121576 13.40512889 64.75200889 13.39111328 60.69262695 C13.37401007 55.48469775 13.38387027 50.27723197 13.40183067 45.06931973 C13.41266071 41.06908157 13.40922595 37.06895367 13.4014473 33.06871223 C13.39944372 31.1481324 13.40191007 29.22754262 13.40888596 27.30697441 C13.41648885 24.62552154 13.40491328 21.9448242 13.38818359 19.26342773 C13.39425629 18.46698349 13.40032898 17.67053925 13.40658569 16.84996033 C13.39321921 12.69615155 13.39321921 12.69615155 11.63076782 9.04286194 C9.44317451 7.64391491 7.31412757 6.99476206 4.8125 6.3125 C3.91144531 6.06113281 3.01039063 5.80976562 2.08203125 5.55078125 C1.39496094 5.36902344 0.70789063 5.18726563 0 5 C0 3.35 0 1.7 0 0 Z M31 6 C30.93049212 17.51776638 30.87718463 29.03548286 30.84456348 40.55341625 C30.82890704 45.90165299 30.80766896 51.24974624 30.77368164 56.59790039 C30.74108773 61.75908634 30.72314683 66.92013425 30.71536827 72.08141518 C30.70982484 74.05060308 30.69899992 76.01978343 30.68280983 77.98891258 C30.66103525 80.74692491 30.6580331 83.50436673 30.65942383 86.26245117 C30.648638 87.07669052 30.63785217 87.89092987 30.6267395 88.72984314 C30.65185929 93.33311283 31.08713702 96.36913914 34 100 C40.85341416 104.32063067 48.9574353 103.86075073 56.74609375 102.53125 C66.89810194 99.87050526 74.59345289 93.9734639 80 85 C84.43150818 75.42309326 85.19565353 66.17093552 85.25 55.75 C85.270625 54.77675781 85.29125 53.80351563 85.3125 52.80078125 C85.38524755 39.1060556 80.91622543 26.22865185 71.51953125 16.11328125 C64.54417363 10.26263246 55.41685417 5.8434817 46.234375 5.90234375 C45.34492188 5.90556641 44.45546875 5.90878906 43.5390625 5.91210938 C42.61867188 5.92048828 41.69828125 5.92886719 40.75 5.9375 C39.34621094 5.94426758 39.34621094 5.94426758 37.9140625 5.95117188 C35.60930959 5.96293082 33.30468773 5.97936574 31 6 Z " fill="#8003FE" transform="translate(137,1090)"/>
<path d="M0 0 C26.97423943 -2.99525137 26.97423943 -2.99525137 34.69628906 1.60693359 C39.08406892 5.86459308 41.8731218 11.05583717 44.63476562 16.4609375 C46.6951031 20.29275254 49.31163537 23.5944184 52 27 C52.98551602 28.30316574 53.96725417 29.60919655 54.9453125 30.91796875 C55.44063477 31.57845215 55.93595703 32.23893555 56.44628906 32.91943359 C61.05820871 39.09523172 65.61276842 45.31375822 70.17822266 51.52392578 C72.05798214 54.0788066 73.94067825 56.63149934 75.82421875 59.18359375 C76.45021973 60.03203857 77.0762207 60.8804834 77.72119141 61.75463867 C78.91192747 63.36833707 80.10298627 64.98179738 81.29443359 66.5949707 C82.10968506 67.70038208 82.10968506 67.70038208 82.94140625 68.828125 C83.41263916 69.4665332 83.88387207 70.10494141 84.36938477 70.76269531 C86.60198601 73.82596194 88.79990372 76.9133047 91 80 C91.06974168 72.05440349 91.12293312 64.10893649 91.15543652 56.16310883 C91.17104246 52.47288645 91.19218682 48.78287465 91.22631836 45.09277344 C91.25909442 41.52659558 91.27689109 37.96061932 91.28463173 34.39430237 C91.29281099 32.38255153 91.31620093 30.37088093 91.33988953 28.35925293 C91.3411287 21.57430107 91.20937834 16.06215909 88 10 C85.52368468 8.45739136 83.13345798 7.70063009 80.3125 7 C79.61060547 6.79761719 78.90871094 6.59523438 78.18554688 6.38671875 C76.46513582 5.89517273 74.7334227 5.4434833 73 5 C73 3.35 73 1.7 73 0 C87.85 0 102.7 0 118 0 C118 1.65 118 3.3 118 5 C117.09636719 5.23074219 116.19273437 5.46148438 115.26171875 5.69921875 C113.49248047 6.18841797 113.49248047 6.18841797 111.6875 6.6875 C110.51574219 7.00074219 109.34398437 7.31398438 108.13671875 7.63671875 C104.39772531 9.26176073 103.53083176 10.26435253 102 14 C101.04014943 19.35033791 100.83328914 24.55038939 100.79467773 29.96459961 C100.78477814 30.83368958 100.77487854 31.70277954 100.76467896 32.59820557 C100.73327934 35.44955796 100.70839236 38.30092696 100.68359375 41.15234375 C100.66300559 43.13774531 100.64200864 45.12314266 100.62062073 47.10853577 C100.56559232 52.31821274 100.5160987 57.52792801 100.46777344 62.7376709 C100.41741747 68.06017438 100.36180518 73.38262269 100.30664062 78.70507812 C100.19929448 89.13667154 100.09779781 99.568313 100 110 C93.24411011 110.1847229 93.24411011 110.1847229 91.04711914 108.5222168 C90.54817139 107.83812744 90.04922363 107.15403809 89.53515625 106.44921875 C88.96732422 105.69390869 88.39949219 104.93859863 87.81445312 104.16040039 C87.23630859 103.34434326 86.65816406 102.52828613 86.0625 101.6875 C85.44697266 100.85661865 84.83144531 100.0257373 84.19726562 99.16967773 C82.44377731 96.79427507 80.71914392 94.40031415 79 92 C78.27683594 91.01773437 77.55367187 90.03546875 76.80859375 89.0234375 C75.58303729 87.35583367 74.36715463 85.68108479 73.16015625 84 C64.87629199 72.49546519 56.38954531 61.13464844 47.85327148 49.81665039 C41.16380106 40.93103962 34.58993861 31.95950201 28 23 C27.95351417 31.20638343 27.91804866 39.41271118 27.89637566 47.61919403 C27.88596999 51.4304217 27.8718701 55.24155881 27.84912109 59.05273438 C27.82727726 62.73560976 27.81540721 66.41839842 27.81024551 70.10133362 C27.80657036 71.50144311 27.79939405 72.90154824 27.78853989 74.30162048 C27.39054669 87.21150452 27.39054669 87.21150452 32 99 C33.95575242 100.09178288 33.95575242 100.09178288 36.25 100.6875 C37.04792969 100.9246875 37.84585938 101.161875 38.66796875 101.40625 C41.42827263 102.10904094 44.17471121 102.63778349 47 103 C47 104.98 47 106.96 47 109 C31.82 109 16.64 109 1 109 C1 107.35 1 105.7 1 104 C1.89203125 103.78085938 2.7840625 103.56171875 3.703125 103.3359375 C4.87359375 103.01882813 6.0440625 102.70171875 7.25 102.375 C8.41015625 102.07335938 9.5703125 101.77171875 10.765625 101.4609375 C14.85960083 99.6117262 15.87696602 97.9290218 18 94 C18.37955462 91.30663078 18.54910811 89.02875154 18.51757812 86.34570312 C18.5245874 85.60343979 18.53159668 84.86117645 18.53881836 84.09642029 C18.55633643 81.65764277 18.54479858 79.22003807 18.53125 76.78125 C18.53394672 75.07783792 18.53783063 73.37442734 18.54284668 71.67102051 C18.54873331 68.10686539 18.54020596 64.54311218 18.52148438 60.97900391 C18.49869503 56.41920224 18.51182264 51.8603424 18.53577423 47.30057526 C18.55025497 43.78486077 18.54561586 40.26936816 18.53526306 36.75364685 C18.53260205 35.07278837 18.53584347 33.39190948 18.54518127 31.71107483 C18.55538486 29.35827573 18.53979482 27.00698419 18.51757812 24.65429688 C18.52567505 23.96528793 18.53377197 23.27627899 18.54211426 22.56639099 C18.45603897 17.62540056 17.06097029 14.82357363 14 11 C12.14537344 9.56234028 12.14537344 9.56234028 10.125 8.75 C9.43664062 8.440625 8.74828125 8.13125 8.0390625 7.8125 C5.39178743 6.7576471 2.7294544 5.81883632 0 5 C0 3.35 0 1.7 0 0 Z " fill="#8206FE" transform="translate(841,1090)"/>
<path d="M0 0 C26.89528306 -2.98648396 26.89528306 -2.98648396 34.6640625 1.55859375 C39.04175966 5.76413428 41.77745794 10.94915604 44.53125 16.30566406 C46.95736552 20.75623103 50.05039939 24.67097691 53.125 28.6875 C54.29709394 30.27265601 55.46640695 31.85987238 56.6328125 33.44921875 C60.21074381 38.2936112 63.82576753 43.10958865 67.44604492 47.92236328 C71.4721623 53.28112081 75.46077417 58.66700525 79.4375 64.0625 C80.01693359 64.84818359 80.59636719 65.63386719 81.19335938 66.44335938 C84.50028891 70.93600987 87.76185355 75.45753818 91 80 C91.06974168 72.05440349 91.12293312 64.10893649 91.15543652 56.16310883 C91.17104246 52.47288645 91.19218682 48.78287465 91.22631836 45.09277344 C91.25909442 41.52659558 91.27689109 37.96061932 91.28463173 34.39430237 C91.29281099 32.38255153 91.31620093 30.37088093 91.33988953 28.35925293 C91.34113073 21.56320271 91.17620083 16.08575764 88 10 C83.33910041 7.25829436 78.2374292 6.1945014 73 5 C73 3.35 73 1.7 73 0 C87.85 0 102.7 0 118 0 C118 1.65 118 3.3 118 5 C117.09636719 5.23074219 116.19273438 5.46148438 115.26171875 5.69921875 C113.49248047 6.18841797 113.49248047 6.18841797 111.6875 6.6875 C110.51574219 7.00074219 109.34398437 7.31398438 108.13671875 7.63671875 C104.4424921 9.24230418 103.56762409 10.3457773 102 14 C100.77718116 18.61632064 100.8274396 23.17978704 100.79467773 27.92114258 C100.78477814 28.80944763 100.77487854 29.69775269 100.76467896 30.61297607 C100.73316915 33.54013431 100.70834819 36.46730875 100.68359375 39.39453125 C100.66301514 41.42763178 100.64201843 43.46072812 100.62062073 45.49382019 C100.56549378 50.83833415 100.5160432 56.18288612 100.46777344 61.52746582 C100.41748988 66.98383965 100.36183962 72.44015845 100.30664062 77.89648438 C100.19917376 88.59760921 100.09770339 99.29878188 100 110 C93.24411011 110.1847229 93.24411011 110.1847229 91.04711914 108.5222168 C90.54817139 107.83812744 90.04922363 107.15403809 89.53515625 106.44921875 C88.96732422 105.69390869 88.39949219 104.93859863 87.81445312 104.16040039 C87.23630859 103.34434326 86.65816406 102.52828613 86.0625 101.6875 C85.44697266 100.85661865 84.83144531 100.0257373 84.19726562 99.16967773 C82.44377731 96.79427507 80.71914392 94.40031415 79 92 C78.27683594 91.01773437 77.55367187 90.03546875 76.80859375 89.0234375 C75.58196025 87.35436816 74.36478552 85.67831375 73.15625 83.99609375 C64.53882784 72.0222481 55.67976708 60.23559444 46.71020508 48.52416992 C41.98649042 42.33941688 37.39873151 36.07737263 32.91796875 29.71484375 C31.31469094 27.44543829 29.67260124 25.21820122 28 23 C27.95351417 31.20638343 27.91804866 39.41271118 27.89637566 47.61919403 C27.88596999 51.4304217 27.8718701 55.24155881 27.84912109 59.05273438 C27.82727726 62.73560976 27.81540721 66.41839842 27.81024551 70.10133362 C27.80657036 71.50144311 27.79939405 72.90154824 27.78853989 74.30162048 C27.39054669 87.21150452 27.39054669 87.21150452 32 99 C33.95575242 100.09178288 33.95575242 100.09178288 36.25 100.6875 C37.04792969 100.9246875 37.84585937 101.161875 38.66796875 101.40625 C41.42827263 102.10904094 44.17471121 102.63778349 47 103 C47 104.98 47 106.96 47 109 C31.82 109 16.64 109 1 109 C1 107.35 1 105.7 1 104 C1.89203125 103.78085938 2.7840625 103.56171875 3.703125 103.3359375 C4.87359375 103.01882813 6.0440625 102.70171875 7.25 102.375 C8.41015625 102.07335938 9.5703125 101.77171875 10.765625 101.4609375 C14.85960083 99.6117262 15.87696602 97.9290218 18 94 C18.37955462 91.30663078 18.54910811 89.02875154 18.51757812 86.34570312 C18.5245874 85.60343979 18.53159668 84.86117645 18.53881836 84.09642029 C18.55633643 81.65764277 18.54479858 79.22003807 18.53125 76.78125 C18.53394672 75.07783792 18.53783063 73.37442734 18.54284668 71.67102051 C18.54873331 68.10686539 18.54020596 64.54311218 18.52148438 60.97900391 C18.49869503 56.41920224 18.51182264 51.8603424 18.53577423 47.30057526 C18.55025497 43.78486077 18.54561586 40.26936816 18.53526306 36.75364685 C18.53260205 35.07278837 18.53584347 33.39190948 18.54518127 31.71107483 C18.55538486 29.35827573 18.53979482 27.00698419 18.51757812 24.65429688 C18.52567505 23.96528793 18.53377197 23.27627899 18.54211426 22.56639099 C18.45603897 17.62540056 17.06097029 14.82357363 14 11 C12.14537344 9.56234028 12.14537344 9.56234028 10.125 8.75 C9.43664063 8.440625 8.74828125 8.13125 8.0390625 7.8125 C5.39178743 6.7576471 2.7294544 5.81883632 0 5 C0 3.35 0 1.7 0 0 Z " fill="#8206FE" transform="translate(1419,1090)"/>
<path d="M0 0 C9.70591498 7.24136025 16.90758923 16.57616142 21 28 C21.35578125 28.97710938 21.7115625 29.95421875 22.078125 30.9609375 C26.50838919 46.99254116 23.9408032 66.58406225 16.35546875 81.16015625 C9.15285186 93.2403918 -1.59931064 101.56343901 -15 106 C-32.30201243 109.07365162 -47.5037435 106.58353431 -61.99609375 96.62890625 C-72.18317351 88.61991036 -79.73051683 74.55319045 -81.7578125 61.8515625 C-83.38416837 42.7025337 -81.33130725 25.38261232 -69 10 C-51.46571104 -10.48704864 -22.71261057 -14.01161048 0 0 Z M-51 8 C-63.91323615 23.53158818 -64.21534903 43.37163848 -62.72265625 62.56640625 C-60.94609572 75.27304392 -56.19677607 87.27584644 -46 95.375 C-39.04779822 100.56018383 -31.3652735 100.79429881 -23 100 C-14.34398853 97.79641171 -7.60672134 91.82768483 -2.75 84.5 C6.14600262 68.04482576 7.25972054 43.77724583 2.55932617 25.63598633 C-0.95157174 14.63462151 -6.75943089 6.42370883 -17 1 C-28.71656523 -4.72809856 -42.02870206 -0.52459431 -51 8 Z " fill="#8104FE" transform="translate(1391,1095)"/>
<path d="M0 0 C9.70591498 7.24136025 16.90758923 16.57616142 21 28 C21.35578125 28.97710938 21.7115625 29.95421875 22.078125 30.9609375 C26.50838919 46.99254116 23.9408032 66.58406225 16.35546875 81.16015625 C9.15285186 93.2403918 -1.59931064 101.56343901 -15 106 C-32.30201243 109.07365162 -47.5037435 106.58353431 -61.99609375 96.62890625 C-72.18317351 88.61991036 -79.73051683 74.55319045 -81.7578125 61.8515625 C-83.38416837 42.7025337 -81.33130725 25.38261232 -69 10 C-51.46571104 -10.48704864 -22.71261057 -14.01161048 0 0 Z M-51 8 C-63.91323615 23.53158818 -64.21534903 43.37163848 -62.72265625 62.56640625 C-60.94609572 75.27304392 -56.19677607 87.27584644 -46 95.375 C-39.04779822 100.56018383 -31.3652735 100.79429881 -23 100 C-14.34398853 97.79641171 -7.60672134 91.82768483 -2.75 84.5 C6.14600262 68.04482576 7.25972054 43.77724583 2.55932617 25.63598633 C-0.95157174 14.63462151 -6.75943089 6.42370883 -17 1 C-28.71656523 -4.72809856 -42.02870206 -0.52459431 -51 8 Z " fill="#8104FE" transform="translate(335,1095)"/>
<path d="M0 0 C2.31 0 4.62 0 7 0 C9.68403019 5.91703432 12.19124645 11.8758144 14.5390625 17.93359375 C14.86151443 18.76062302 15.18396637 19.58765228 15.51618958 20.43974304 C16.55459179 23.10483774 17.58987276 25.7711318 18.625 28.4375 C19.34630378 30.29090415 20.06774031 32.14425664 20.78930664 33.99755859 C24.69360957 44.03177386 28.57677962 54.07393603 32.4375 64.125 C32.82526611 65.12990479 33.21303223 66.13480957 33.61254883 67.17016602 C35.58425752 72.28416721 37.52552507 77.40730808 39.4296875 82.546875 C40.22387192 84.65628253 41.01813953 86.76565875 41.8125 88.875 C42.33638306 90.32156982 42.33638306 90.32156982 42.87084961 91.79736328 C44.76840487 96.79264471 46.19090644 100.20332713 51 103 C53.40741247 104.08014417 53.40741247 104.08014417 55.8125 104.75 C56.99779297 105.11351562 56.99779297 105.11351562 58.20703125 105.484375 C58.79871094 105.65453125 59.39039063 105.8246875 60 106 C60 107.65 60 109.3 60 111 C44.82 111 29.64 111 14 111 C14 109.35 14 107.7 14 106 C17.96 105.01 21.92 104.02 26 103 C27.02063807 97.89680963 26.91307409 96.83212131 25.12890625 92.26171875 C24.76095947 91.29967529 24.3930127 90.33763184 24.01391602 89.34643555 C23.53494873 88.13898682 23.05598145 86.93153809 22.5625 85.6875 C21.056875 81.830625 19.55125 77.97375 18 74 C5.46 74 -7.08 74 -20 74 C-25.14764156 88.1718006 -25.14764156 88.1718006 -27 102 C-22.02638346 103.75734451 -17.2584002 105.32584613 -12 106 C-12 107.65 -12 109.3 -12 111 C-25.53 111 -39.06 111 -53 111 C-53 109.35 -53 107.7 -53 106 C-52.00419922 105.65388672 -52.00419922 105.65388672 -50.98828125 105.30078125 C-50.10527344 104.97464844 -49.22226563 104.64851563 -48.3125 104.3125 C-47.44238281 103.99925781 -46.57226562 103.68601562 -45.67578125 103.36328125 C-40.08642995 100.51556796 -37.38983082 96.41475669 -35.125 90.70703125 C-34.75556274 89.79038696 -34.75556274 89.79038696 -34.37866211 88.85522461 C-33.57294014 86.84583109 -32.78627166 84.82957506 -32 82.8125 C-31.43707826 81.39572737 -30.87325953 79.97931085 -30.30859375 78.56323242 C-28.51633688 74.05092326 -26.75393219 69.52732551 -25 65 C-24.70448242 64.23719727 -24.40896484 63.47439453 -24.10449219 62.68847656 C-20.74793616 54.01278803 -17.42807563 45.32340756 -14.13346863 36.62402344 C-10.53525299 27.12571966 -6.87396017 17.65185579 -3.1875 8.1875 C-2.87619141 7.38763672 -2.56488281 6.58777344 -2.24414062 5.76367188 C-1.49632396 3.8423583 -0.74819788 1.92116516 0 0 Z " fill="#8104FE" transform="translate(1102,1088)"/>
<path d="M0 0 C27.72 0 55.44 0 84 0 C84 8.58 84 17.16 84 26 C82.02 26 80.04 26 78 26 C77.54560547 25.02160156 77.54560547 25.02160156 77.08203125 24.0234375 C72.33873824 13.90009245 72.33873824 13.90009245 63.40332031 7.62231445 C57.78291129 6.1669688 51.83388056 6.41156986 46.0625 6.3125 C41.421875 6.209375 36.78125 6.10625 32 6 C32 20.19 32 34.38 32 49 C49.56171651 49.69581398 49.56171651 49.69581398 57 44 C58.8376238 40.65666426 58.8376238 40.65666426 60 37 C60.391875 35.865625 60.78375 34.73125 61.1875 33.5625 C61.455625 32.716875 61.72375 31.87125 62 31 C63.98 31 65.96 31 68 31 C68 45.19 68 59.38 68 74 C66.02 74 64.04 74 62 74 C61.65388672 72.78763672 61.65388672 72.78763672 61.30078125 71.55078125 C58.81720782 63.16640278 58.81720782 63.16640278 53 57 C50.34081834 56.11360611 48.51935359 55.82010975 45.76953125 55.68359375 C44.56586914 55.62075195 44.56586914 55.62075195 43.33789062 55.55664062 C42.50451172 55.51732422 41.67113281 55.47800781 40.8125 55.4375 C39.5450293 55.37272461 39.5450293 55.37272461 38.25195312 55.30664062 C36.16815567 55.20068482 34.08409897 55.0998498 32 55 C32.06885529 60.90862048 32.15681197 66.81653184 32.26245117 72.72460938 C32.29569726 74.73429499 32.32373019 76.74407391 32.34643555 78.75390625 C32.37998722 81.64363347 32.43230337 84.53250593 32.48828125 87.421875 C32.49467117 88.31992859 32.5010611 89.21798218 32.50764465 90.14324951 C32.61256528 95.03355932 32.61256528 95.03355932 34.34448242 99.53613281 C38.84946213 103.51959518 45.99420636 102.22527643 51.625 102.25 C52.77613281 102.270625 53.92726563 102.29125 55.11328125 102.3125 C66.59984652 102.37270169 66.59984652 102.37270169 76.265625 96.86328125 C78.57953959 93.04323756 80.70648603 89.15804098 82.75 85.1875 C83.16121094 84.39923828 83.57242188 83.61097656 83.99609375 82.79882812 C85.00225178 80.86840864 86.00179969 78.93454633 87 77 C88.98 77 90.96 77 93 77 C92.34 87.56 91.68 98.12 91 109 C60.97 109 30.94 109 0 109 C0 107.35 0 105.7 0 104 C0.84304688 103.81824219 1.68609375 103.63648438 2.5546875 103.44921875 C3.65039062 103.19785156 4.74609375 102.94648437 5.875 102.6875 C6.96554687 102.44386719 8.05609375 102.20023438 9.1796875 101.94921875 C12.29442353 101.22097942 12.29442353 101.22097942 14 98 C14.20495972 95.20760798 14.29370006 92.51412327 14.29052734 89.72070312 C14.29724457 88.87652328 14.30396179 88.03234344 14.31088257 87.1625824 C14.32989958 84.36874528 14.33378833 81.57514782 14.3359375 78.78125 C14.3423618 76.84216207 14.34908988 74.90307512 14.35610962 72.96398926 C14.3680909 68.89865876 14.37178946 64.83341331 14.37060547 60.76806641 C14.37040199 55.55219758 14.39773019 50.33687185 14.43214989 45.1211319 C14.45435553 41.11661256 14.458445 37.11222537 14.45738602 33.10765076 C14.45975054 31.18426131 14.46862168 29.26086869 14.48405075 27.33753967 C14.50358723 24.65106804 14.49792231 21.96578655 14.48583984 19.27929688 C14.49707886 18.48128159 14.50831787 17.6832663 14.51989746 16.86106873 C14.50233753 12.51542792 14.50233753 12.51542792 12.13076782 9.04187012 C9.70406568 7.85529858 7.35424152 7.03209305 4.75 6.3125 C3.85796875 6.06113281 2.9659375 5.80976562 2.046875 5.55078125 C1.37140625 5.36902344 0.6959375 5.18726563 0 5 C0 3.35 0 1.7 0 0 Z " fill="#8002FE" transform="translate(741,1090)"/>
<path d="M0 0 C15.18 0 30.36 0 46 0 C46 1.65 46 3.3 46 5 C44.84371094 5.29003906 44.84371094 5.29003906 43.6640625 5.5859375 C42.66117188 5.84632812 41.65828125 6.10671875 40.625 6.375 C39.12839844 6.75785156 39.12839844 6.75785156 37.6015625 7.1484375 C34.87458985 7.82404319 34.87458985 7.82404319 33 10 C32.68487452 13.09405326 32.68487452 13.09405326 32.7253418 16.78540039 C32.72023087 17.48324646 32.71511993 18.18109253 32.70985413 18.90008545 C32.69591347 21.21602885 32.69691955 23.53167576 32.69921875 25.84765625 C32.6953315 27.45991629 32.69099676 29.0721753 32.68623352 30.68443298 C32.67875971 34.0714753 32.67906893 37.45841345 32.68432617 40.84545898 C32.6900929 45.16726981 32.67326381 49.48864817 32.6499815 53.81038761 C32.63517398 57.14518188 32.63438246 60.47987403 32.63749123 63.81469536 C32.63698056 65.4065581 32.63179091 66.99842694 32.62167931 68.59025764 C32.30439621 82.5607851 32.30439621 82.5607851 38.3125 94.8125 C47.30137206 102.12902377 54.65409048 102.95943778 66 102 C73.16379385 100.259873 78.55629432 97.55795829 82.81640625 91.453125 C86.78114499 83.2357787 87.44483798 75.89549315 87.3984375 66.8203125 C87.40130768 65.57176483 87.40417786 64.32321716 87.40713501 63.03683472 C87.40968644 59.7365926 87.39770831 56.43678168 87.38085938 53.13659668 C87.37501311 51.12949989 87.38083126 49.12279769 87.39111328 47.11572266 C87.40976844 43.22540404 87.40736699 39.33565626 87.3984375 35.4453125 C87.40451019 34.26164093 87.41058289 33.07796936 87.4168396 31.85842896 C87.45481466 19.51489062 87.45481466 19.51489062 82 9 C77.38414532 7.46138177 72.72297672 6.16626921 68 5 C68 3.35 68 1.7 68 0 C82.85 0 97.7 0 113 0 C113 1.65 113 3.3 113 5 C112.09636719 5.20753906 111.19273437 5.41507813 110.26171875 5.62890625 C109.08222656 5.93699219 107.90273438 6.24507812 106.6875 6.5625 C105.51574219 6.85253906 104.34398437 7.14257812 103.13671875 7.44140625 C99.77775055 9.11043279 98.9208266 10.1567349 97.58430481 13.58589172 C96.38939098 18.52278649 96.57773026 23.60299903 96.58930969 28.65738869 C96.59382984 30.80750805 96.57966985 32.95682234 96.56091309 35.1068573 C96.52429981 39.67539213 96.51045845 44.24384017 96.5 48.8125 C96.48786125 54.10178609 96.46602037 59.39067571 96.41999817 64.67978477 C96.40657405 66.78130201 96.41057203 68.88229879 96.41540527 70.98384094 C96.3164813 83.68330461 94.21591921 92.35004053 85.44140625 101.65234375 C75.566277 110.95912023 63.40369598 112.50294562 50.40234375 112.27734375 C39.81793413 111.81655399 29.55974142 107.88966014 22.22265625 100.1171875 C15.06357527 91.1902161 14.57469466 82.5586894 14.61987495 71.5719223 C14.62905043 69.13355901 14.61869149 66.69595388 14.60325623 64.25762939 C14.56331613 57.33126853 14.56196149 50.40497259 14.56420898 43.47851562 C14.56426005 39.22865732 14.54512197 34.97921391 14.51487541 30.7294693 C14.50405348 28.32952594 14.5161725 25.93037437 14.52870178 23.53045654 C14.51979972 22.06033543 14.50972615 20.59022078 14.49829102 19.12011719 C14.49845718 17.83852722 14.49862335 16.55693726 14.49879456 15.23651123 C13.91345974 11.43846918 13.01747961 10.29559402 10 8 C7.44372475 6.89790667 7.44372475 6.89790667 4.75 6.25 C3.85796875 6.00765625 2.9659375 5.7653125 2.046875 5.515625 C1.37140625 5.34546875 0.6959375 5.1753125 0 5 C0 3.35 0 1.7 0 0 Z " fill="#8104FE" transform="translate(470,1090)"/>
<path d="M0 0 C0.66 -1.65 1.32 -3.3 2 -5 C4.31 -5 6.62 -5 9 -5 C9 7.87 9 20.74 9 34 C7.02 34 5.04 34 3 34 C2.5875 32.906875 2.175 31.81375 1.75 30.6875 C1.33427734 29.59308594 1.33427734 29.59308594 0.91015625 28.4765625 C0.28429544 26.77357642 -0.31046679 25.05894067 -0.87890625 23.3359375 C-3.93095038 14.26919552 -7.97975944 6.51391538 -16 1 C-21.91374573 -1.88810838 -29.17417975 -2.12167472 -35.46484375 -0.27734375 C-37.74472736 0.68527377 -39.85529387 1.76689572 -42 3 C-42.62777344 3.33902344 -43.25554687 3.67804688 -43.90234375 4.02734375 C-51.95581201 8.9792575 -55.64925665 18.19904624 -58 27 C-58.34933594 28.15757813 -58.69867188 29.31515625 -59.05859375 30.5078125 C-60.42353514 36.04347959 -60.32956366 41.57804103 -60.3125 47.25 C-60.32861328 48.30574219 -60.34472656 49.36148437 -60.36132812 50.44921875 C-60.37027525 65.068821 -56.32190694 78.20923969 -46.2578125 89.01953125 C-39.06315064 95.33041977 -30.91309097 97.44015135 -21.5546875 97.3359375 C-12.79597676 96.50819121 -5.60502976 92.72636861 0.30859375 86.26953125 C3.1416313 82.46815754 5.14631975 78.34901905 7 74 C8.98 74.66 10.96 75.32 13 76 C11.70849703 84.92608381 6.00718206 93.08229037 -0.96875 98.609375 C-4.18089887 100.80846153 -7.4098809 102.50584639 -11 104 C-11.61746094 104.2990625 -12.23492187 104.598125 -12.87109375 104.90625 C-23.56237747 109.40784315 -37.52252027 108.06852735 -48.16796875 104.265625 C-52.52409719 102.31888622 -56.24864792 99.93166688 -60 97 C-60.61359375 96.56042969 -61.2271875 96.12085938 -61.859375 95.66796875 C-71.25218433 88.45711734 -77.66289027 75.69419847 -79.6875 64.125 C-81.72476175 43.75238249 -79.39050344 25.15960848 -66.38671875 8.6953125 C-49.20899354 -10.70342792 -21.56802636 -13.59463399 0 0 Z " fill="#8105FE" transform="translate(450,1095)"/>
<path d="M0 0 C31.68 0 63.36 0 96 0 C96 9.9 96 19.8 96 30 C94.02 30 92.04 30 90 30 C89.34644531 28.60587891 89.34644531 28.60587891 88.6796875 27.18359375 C83.71483965 15.90677463 83.71483965 15.90677463 74.83984375 7.8671875 C71.11324576 6.72921672 67.56388614 6.5412793 63.6875 6.375 C62.94693359 6.33632812 62.20636719 6.29765625 61.44335938 6.2578125 C59.62928691 6.16418295 57.81467884 6.08103149 56 6 C56.08433222 17.66557148 56.1791879 29.33100517 56.28752708 40.99637985 C56.33750014 46.41292503 56.38383019 51.82945061 56.421875 57.24609375 C56.45871491 62.47220039 56.50507152 67.69814346 56.55806351 72.92411041 C56.57661431 74.91919336 56.59171972 76.91431139 56.60334396 78.90944672 C56.62019456 81.70119524 56.64922691 84.49256857 56.68115234 87.28417969 C56.68331253 88.11136505 56.68547272 88.93855042 56.68769836 89.790802 C56.66987895 95.25061969 56.66987895 95.25061969 59 100 C61.59732735 100.94554389 63.95187624 101.64830056 66.625 102.25 C67.33140625 102.42273437 68.0378125 102.59546875 68.765625 102.7734375 C70.5069064 103.19699243 72.2530531 103.60045497 74 104 C74 105.65 74 107.3 74 109 C56.84 109 39.68 109 22 109 C22 107.35 22 105.7 22 104 C23.22976563 103.83564453 23.22976563 103.83564453 24.484375 103.66796875 C25.56203125 103.50941406 26.6396875 103.35085938 27.75 103.1875 C28.81734375 103.03667969 29.8846875 102.88585938 30.984375 102.73046875 C34.3217932 101.92205268 35.6812908 101.5241909 38 99 C38.41009432 95.92505222 38.56393299 93.20134931 38.54589844 90.12231445 C38.55623611 89.21479431 38.56657379 88.30727417 38.57722473 87.37225342 C38.60675008 84.36908366 38.60815396 81.366585 38.609375 78.36328125 C38.62435007 76.28247281 38.64107578 74.20167628 38.65948486 72.12089539 C38.70324612 66.64150459 38.72317695 61.16227414 38.73822021 55.68273926 C38.75775966 50.09243249 38.79973318 44.5022997 38.83984375 38.91210938 C38.91524094 27.9414598 38.96547483 16.97084898 39 6 C36.26053138 6.09905317 33.52344994 6.2146335 30.78515625 6.33984375 C29.62626892 6.3791803 29.62626892 6.3791803 28.44396973 6.41931152 C23.10483146 6.68090786 19.49746795 7.34838479 15.71484375 11.4140625 C11.83228665 17.26885248 8.8846259 23.60932613 6 30 C4.02 30 2.04 30 0 30 C0 20.1 0 10.2 0 0 Z " fill="#8105FE" transform="translate(966,1090)"/>
<path d="M0 0 C31.68 0 63.36 0 96 0 C96 9.9 96 19.8 96 30 C94.02 30 92.04 30 90 30 C89.34644531 28.60587891 89.34644531 28.60587891 88.6796875 27.18359375 C83.71483965 15.90677463 83.71483965 15.90677463 74.83984375 7.8671875 C71.11324576 6.72921672 67.56388614 6.5412793 63.6875 6.375 C62.94693359 6.33632812 62.20636719 6.29765625 61.44335938 6.2578125 C59.62928691 6.16418295 57.81467884 6.08103149 56 6 C56.08433222 17.66557148 56.1791879 29.33100517 56.28752708 40.99637985 C56.33750014 46.41292503 56.38383019 51.82945061 56.421875 57.24609375 C56.45871491 62.47220039 56.50507152 67.69814346 56.55806351 72.92411041 C56.57661431 74.91919336 56.59171972 76.91431139 56.60334396 78.90944672 C56.62019456 81.70119524 56.64922691 84.49256857 56.68115234 87.28417969 C56.68331253 88.11136505 56.68547272 88.93855042 56.68769836 89.790802 C56.66987895 95.25061969 56.66987895 95.25061969 59 100 C61.59732735 100.94554389 63.95187624 101.64830056 66.625 102.25 C67.33140625 102.42273437 68.0378125 102.59546875 68.765625 102.7734375 C70.5069064 103.19699243 72.2530531 103.60045497 74 104 C74 105.65 74 107.3 74 109 C56.84 109 39.68 109 22 109 C22 107.35 22 105.7 22 104 C23.22976563 103.83564453 23.22976563 103.83564453 24.484375 103.66796875 C25.56203125 103.50941406 26.6396875 103.35085938 27.75 103.1875 C28.81734375 103.03667969 29.8846875 102.88585938 30.984375 102.73046875 C34.10253152 101.975164 35.70720617 101.21243891 38 99 C39.2914819 95.12555431 39.1773349 91.43758167 39.20532227 87.39770508 C39.21522186 86.51944565 39.22512146 85.64118622 39.23532104 84.73631287 C39.26693119 81.8307465 39.29169161 78.92516378 39.31640625 76.01953125 C39.33697619 74.00599236 39.35797268 71.99245778 39.37937927 69.97892761 C39.43459577 64.67712903 39.48400695 59.37529151 39.53222656 54.07342529 C39.58244463 48.66414928 39.63812911 43.25492987 39.69335938 37.84570312 C39.8009358 27.2305171 39.90238196 16.61528194 40 6 C37.0952278 6.09900498 34.19272201 6.2145873 31.2890625 6.33984375 C30.46929932 6.36606812 29.64953613 6.39229248 28.80493164 6.41931152 C23.34097455 6.67194016 19.53290985 7.20570445 15.6796875 11.4140625 C11.85584885 17.30099549 8.88330814 23.61224552 6 30 C4.02 30 2.04 30 0 30 C0 20.1 0 10.2 0 0 Z " fill="#7F01FE" transform="translate(1148,1090)"/>
<path d="M0 0 C16.17 0 32.34 0 49 0 C49 1.65 49 3.3 49 5 C48.16855469 5.18175781 47.33710937 5.36351562 46.48046875 5.55078125 C45.39378906 5.80214844 44.30710937 6.05351563 43.1875 6.3125 C42.10855469 6.55613281 41.02960938 6.79976562 39.91796875 7.05078125 C36.31626763 8.20763173 36.31626763 8.20763173 34 11 C33.70383615 13.79777923 33.59022426 16.37303127 33.61181641 19.17163086 C33.60393097 20.42086082 33.60393097 20.42086082 33.59588623 21.69532776 C33.58266809 24.45202314 33.59143144 27.20814235 33.6015625 29.96484375 C33.59954209 31.87911592 33.59663093 33.79338733 33.59286499 35.70765686 C33.58843902 39.72176432 33.59488076 43.73567164 33.60888672 47.74975586 C33.6259672 52.8959623 33.61614633 58.041699 33.59816933 63.18788815 C33.58732902 67.1418461 33.59077917 71.0956927 33.5985527 75.04965401 C33.60055463 76.94707863 33.59809572 78.84451336 33.59111404 80.74192619 C33.58349682 83.39454801 33.59510794 86.04640943 33.61181641 88.69897461 C33.60574371 89.48404388 33.59967102 90.26911316 33.59341431 91.07797241 C33.63088069 94.28797181 33.78667808 96.60998199 35.34188843 99.4533844 C37.7308146 101.68167262 40.02235704 102.06932409 43.1875 102.75 C44.81751953 103.11351562 44.81751953 103.11351562 46.48046875 103.484375 C47.31191406 103.65453125 48.14335938 103.8246875 49 104 C49 105.65 49 107.3 49 109 C32.83 109 16.66 109 0 109 C0 107.35 0 105.7 0 104 C4.95 103.01 9.9 102.02 15 101 C15.09258084 89.31733761 15.16370445 77.63476215 15.20724869 65.95180798 C15.22814521 60.52722934 15.25650068 55.10290123 15.30175781 49.6784668 C15.34514169 44.44595685 15.36912154 39.21368823 15.37950897 33.98101234 C15.38691375 31.98224397 15.40137316 29.98348917 15.42292023 27.98482323 C15.45185508 25.19035421 15.45596017 22.39688904 15.45410156 19.60229492 C15.46848267 18.77151428 15.48286377 17.94073364 15.49768066 17.08477783 C15.51544355 12.62306301 15.51544355 12.62306301 13.14642334 9.02168274 C10.55314928 7.78730213 8.03664213 7.00916053 5.25 6.3125 C4.26515625 6.06113281 3.2803125 5.80976562 2.265625 5.55078125 C1.51796875 5.36902344 0.7703125 5.18726563 0 5 C0 3.35 0 1.7 0 0 Z " fill="#8105FE" transform="translate(1254,1090)"/>
<path d="M0 0 C0.66 0 1.32 0 2 0 C2.36351562 0.969375 2.72703125 1.93875 3.1015625 2.9375 C3.34156982 3.57743896 3.58157715 4.21737793 3.82885742 4.87670898 C4.36569195 6.30843236 4.90230828 7.74023756 5.4387207 9.17211914 C6.83043428 12.88619146 8.22533894 16.59898325 9.62890625 20.30859375 C9.8904248 21.00146484 10.15194336 21.69433594 10.42138672 22.40820312 C10.9151213 23.7160176 11.41014045 25.02334819 11.90673828 26.33007812 C13.73829759 31.18863797 15.35421794 36.06265382 17 41 C6.44 41 -4.12 41 -15 41 C-11.3627776 30.08833281 -7.66883336 19.28406955 -3.11328125 8.71875 C-1.93833698 5.84941242 -0.95025322 2.95055795 0 0 Z " fill="#FBF8FE" transform="translate(1100,1113)"/>
</svg>
